<?xml version="1.0" standalone="no"?>
<!DOCTYPE svg PUBLIC "-//W3C//DTD SVG 20010904//EN"
 "http://www.w3.org/TR/2001/REC-SVG-20010904/DTD/svg10.dtd">
<svg version="1.0" xmlns="http://www.w3.org/2000/svg"
 width="1042.000000pt" height="1042.000000pt" viewBox="0 0 1042.000000 1042.000000"
 preserveAspectRatio="xMidYMid meet">
<metadata>
Created by potrace 1.11, written by Peter Selinger 2001-2013
</metadata>
<g transform="translate(0.000000,1042.000000) scale(0.100000,-0.100000)"
fill="#000000" stroke="none">
<path d="M4040 8839 c0 -1502 -1 -1581 -17 -1574 -10 3 -625 358 -1366 787
-742 429 -1352 776 -1357 772 -12 -13 -1165 -2016 -1167 -2028 -1 -6 609 -364
1357 -796 748 -432 1359 -787 1360 -790 0 -3 -610 -358 -1356 -790 -745 -431
-1357 -787 -1360 -791 -8 -13 1164 -2034 1180 -2033 7 1 618 351 1356 778 738
428 1348 780 1356 783 12 4 14 -213 14 -1576 l0 -1581 1175 0 1175 0 0 1581
c0 1261 3 1580 13 1576 6 -3 619 -356 1361 -786 741 -430 1351 -781 1355 -781
4 0 271 458 594 1017 466 810 584 1020 573 1028 -8 6 -620 361 -1360 790 -740
428 -1346 782 -1346 785 0 3 610 358 1356 790 745 431 1357 787 1359 790 2 3
-261 463 -583 1023 -439 760 -591 1016 -602 1012 -8 -4 -617 -355 -1353 -781
-737 -427 -1346 -778 -1353 -781 -12 -4 -14 236 -16 1573 l-3 1579 -1172 3
-1173 2 0 -1581z"/>
</g>
</svg>
